<svg aria-hidden="true" style="position: absolute; width: 0; height: 0; overflow: hidden;" version="1.1" xmlns="http://www.w3.org/2000/svg" xmlns:xlink="http://www.w3.org/1999/xlink">
<defs>
<symbol id="icon-logo-1-new" viewBox="0 0 32 32">
<path d="M11.106 0.878c-5.396 2.008-8.596 5.396-10.227 10.792-1.129 3.765-1.129 4.894 0.125 8.973 1.067 3.576 4.078 7.404 7.529 9.412 2.635 1.569 2.761 0.565 0.251-1.82-1.569-1.443-1.882-2.259-1.882-4.643 0-1.569-0.251-2.886-0.627-2.886-1.192 0-1.443-3.075-0.376-4.706 0.565-0.816 1.004-2.196 1.004-2.949 0-2.071 2.196-5.333 4.518-6.776 5.459-3.325 13.302 0.502 14.118 6.965 0.188 1.318 0.753 2.761 1.192 3.137 1.129 0.941 1.129 2.698 0 3.639-0.439 0.376-1.004 2.133-1.129 3.827-0.251 2.698-0.69 3.451-2.761 5.333-2.698 2.384-3.388 2.635-3.388 1.255 0-0.753-0.816-0.941-3.514-0.941-2.824 0-3.451 0.188-3.2 0.878 0.251 0.565-0.063 1.067-0.69 1.192-0.565 0.188 1.067 0.314 3.639 0.314 3.576 0 5.208-0.314 6.902-1.318 5.898-3.451 8.784-8.22 8.784-14.557 0-2.259-0.376-5.020-0.878-6.212-1.255-2.949-4.58-6.526-7.467-8.031-3.263-1.631-8.784-2.071-11.922-0.878z"></path>
<path d="M12.737 7.906c-2.51 1.255-2.573 1.694-0.502 2.635s5.459 0.941 7.529 0c2.133-0.941 2.008-1.631-0.627-2.761-2.761-1.129-3.89-1.067-6.4 0.125z"></path>
<path d="M9.161 11.733c-0.188 0.251-0.376 1.067-0.376 1.882 0 1.443 0.063 1.443 7.592 1.443 6.651 0 7.529-0.126 7.216-1.004-0.188-0.565-0.376-1.38-0.376-1.882 0-0.753-0.314-0.753-2.008 0.126-2.573 1.318-7.216 1.38-9.663 0.063-1.067-0.565-2.133-0.816-2.384-0.627z"></path>
<path d="M6.902 18.196c0 0.314 2.447 0.69 5.522 0.753l5.459 0.188 0.188 2.008c0.125 1.129 0.439 2.071 0.753 2.071s0.627-0.941 0.753-2.071c0.188-1.882 0.376-2.008 2.886-2.196 1.443-0.125 2.635-0.439 2.635-0.816 0-0.314-3.827-0.565-9.098-0.565-5.396 0-9.098 0.251-9.098 0.627z"></path>
<path d="M8.784 23.404c0 3.325 1.506 4.204 7.153 4.204 6.212 0 7.278-0.565 7.278-3.765 0-1.38-0.251-2.51-0.627-2.51-0.314 0-0.627 0.502-0.627 1.129 0 0.69-0.565 1.694-1.255 2.322-2.071 1.882-4.957 0-4.455-3.012 0-0.251-1.631-0.439-3.702-0.439h-3.765v2.071z"></path>
</symbol>
<symbol id="icon-burger" viewBox="0 0 46 32">
<path fill="none" stroke="#d41443" style="stroke: var(--color1, #d41443)" stroke-linejoin="miter" stroke-linecap="butt" stroke-miterlimit="4" stroke-width="2.2857" d="M0 2.286h45.714"></path>
<path fill="none" stroke="#d41443" style="stroke: var(--color1, #d41443)" stroke-linejoin="miter" stroke-linecap="butt" stroke-miterlimit="4" stroke-width="2.2857" d="M0 16h45.714"></path>
<path fill="none" stroke="#d41443" style="stroke: var(--color1, #d41443)" stroke-linejoin="miter" stroke-linecap="butt" stroke-miterlimit="4" stroke-width="2.2857" d="M0 29.714h45.714"></path>
</symbol>
<symbol id="icon-vector-1" viewBox="0 0 22 32">
<path fill="none" stroke="#d41443" style="stroke: var(--color1, #d41443)" stroke-linejoin="round" stroke-linecap="round" stroke-miterlimit="4" stroke-width="6.4" d="M5.575 3.2l12.88 12.8-12.88 12.8"></path>
</symbol>
<symbol id="icon-close" viewBox="0 0 32 32">
<path stroke-linejoin="miter" stroke-linecap="butt" stroke-miterlimit="4" stroke-width="2" d="M2.519 2l26.963 28"></path>
<path stroke-linejoin="miter" stroke-linecap="butt" stroke-miterlimit="4" stroke-width="2" d="M2 29.481l28-26.963"></path>
</symbol>
<symbol id="icon-person-form" viewBox="0 0 32 32">
<path d="M16 16c2.947 0 5.333-2.387 5.333-5.333s-2.387-5.333-5.333-5.333c-2.947 0-5.333 2.387-5.333 5.333s2.387 5.333 5.333 5.333zM16 18.667c-3.56 0-10.667 1.787-10.667 5.333v1.333c0 0.733 0.6 1.333 1.333 1.333h18.667c0.733 0 1.333-0.6 1.333-1.333v-1.333c0-3.547-7.107-5.333-10.667-5.333z"></path>
</symbol>
<symbol id="icon-phone-form" viewBox="0 0 32 32">
<path d="M24.882 19.773l-3.268-0.373c-0.785-0.090-1.557 0.18-2.11 0.733l-2.367 2.367c-3.641-1.853-6.626-4.825-8.478-8.478l2.38-2.38c0.553-0.553 0.823-1.325 0.733-2.11l-0.373-3.242c-0.154-1.299-1.248-2.277-2.56-2.277h-2.226c-1.454 0-2.663 1.209-2.573 2.663 0.682 10.987 9.469 19.761 20.443 20.443 1.454 0.090 2.663-1.119 2.663-2.573v-2.226c0.013-1.299-0.965-2.393-2.264-2.547z"></path>
</symbol>
<symbol id="icon-email-form" viewBox="0 0 32 32">
<path d="M26.667 5.333h-21.333c-1.467 0-2.653 1.2-2.653 2.667l-0.013 16c0 1.467 1.2 2.667 2.667 2.667h21.333c1.467 0 2.667-1.2 2.667-2.667v-16c0-1.467-1.2-2.667-2.667-2.667zM26.133 11l-9.427 5.893c-0.427 0.267-0.987 0.267-1.413 0l-9.427-5.893c-0.333-0.213-0.533-0.573-0.533-0.96 0-0.893 0.973-1.427 1.733-0.96l8.933 5.587 8.933-5.587c0.76-0.467 1.733 0.067 1.733 0.96 0 0.387-0.2 0.747-0.533 0.96z"></path>
</symbol>
<symbol id="icon-vector-form" viewBox="0 0 42 32">
<path fill="#fff" style="fill: var(--color1, #fff); stroke: var(--color1, #fff)" stroke="#fff" stroke-linejoin="miter" stroke-linecap="butt" stroke-miterlimit="4" stroke-width="0.64" d="M6.263 15.205l-0.22-0.21-3.307 3.132 11.651 11.114 24.477-23.351-3.285-3.134-21.192 20.197-8.124-7.75z"></path>
</symbol>
</defs>
</svg>
